# xmcd
#
# Track frame offsets:
#	150
#	17601
#	33085
#	47524
#	62371
#	79752
#	95246
#	112073
#	126843
#	139972
#	158758
#	175430
#	198422
#	213504
#	231128
#	242869
#	259717
#	278072
#	292860
#
# Disc length: 4128 seconds
#
# Revision: 0
# Processed by: cddbd v1.5.2PL0 Copyright (c) Steve Scherf et al.
# Submitted via: audiograbber 1.83.01
#
DISCID=0d101e13
DTITLE=Various Artist - Hott Country 126
DYEAR=2006
DGENRE=Country
TTITLE0=Lonestar - Mountains
TTITLE1=Alan Jackson - Like Red On A Rose
TTITLE2=Martina McBride - True Love Ways
TTITLE3=Montgomery Gentry - Some People Change
TTITLE4=Dierks Bentley - Every Mile A Memory
TTITLE5=George Strait - Give It Away
TTITLE6=Doc Walker - Maria
TTITLE7=Carrie Underwood - Before He Cheats
TTITLE8=Julie Roberts - Girl Nest Door
TTITLE9=Keith Anderson - Three Chord Country And American Rock and Roll
TTITLE10=Phil Vasserr - Woman In My Life
TTITLE11=Big and Rich - 8TH Of November
TTITLE12=Corb Lund Band - Counterfeiter's Blues
TTITLE13=Kenny Chesney - You Save Me
TTITLE14=Johnny Cash - God's gonna Cut You Down
TTITLE15=tracy Byrd - Cheapest Motel
TTITLE16=Shooter Jennings - Gone To Carolina
TTITLE17=Brie Long - Meat And Potato Man
TTITLE18=brad Johner - The Last Saskatchewan Pirate
EXTD=September 2006
EXTT0=
EXTT1=
EXTT2=
EXTT3=
EXTT4=
EXTT5=
EXTT6=
EXTT7=
EXTT8=
EXTT9=
EXTT10=
EXTT11=
EXTT12=
EXTT13=
EXTT14=
EXTT15=
EXTT16=
EXTT17=
EXTT18=
PLAYORDER=
